<?xml version="1.0" encoding="UTF-8" standalone="no"?>
<!-- Created with Inkscape (http://www.inkscape.org/) -->

<svg
   id="svg2"
   version="1.1"
   inkscape:version="1.1.1 (3bf5ae0d25, 2021-09-20)"
   width="40.287849"
   height="42.522095"
   viewBox="0 0 40.287849 42.522095"
   sodipodi:docname="butterfly-hud.svg"
   inkscape:export-filename="/home/lovejesus/computerstuff/programming/haxe/AsherGame/assets/images/butterflyHud.png"
   inkscape:export-xdpi="90"
   inkscape:export-ydpi="90"
   xmlns:inkscape="http://www.inkscape.org/namespaces/inkscape"
   xmlns:sodipodi="http://sodipodi.sourceforge.net/DTD/sodipodi-0.dtd"
   xmlns="http://www.w3.org/2000/svg"
   xmlns:svg="http://www.w3.org/2000/svg"
   xmlns:rdf="http://www.w3.org/1999/02/22-rdf-syntax-ns#"
   xmlns:cc="http://creativecommons.org/ns#"
   xmlns:dc="http://purl.org/dc/elements/1.1/">
  <metadata
     id="metadata8">
    <rdf:RDF>
      <cc:Work
         rdf:about="">
        <dc:format>image/svg+xml</dc:format>
        <dc:type
           rdf:resource="http://purl.org/dc/dcmitype/StillImage" />
        <dc:title />
      </cc:Work>
    </rdf:RDF>
  </metadata>
  <defs
     id="defs6" />
  <sodipodi:namedview
     pagecolor="#ffffff"
     bordercolor="#666666"
     borderopacity="1"
     objecttolerance="10"
     gridtolerance="10"
     guidetolerance="10"
     inkscape:pageopacity="0"
     inkscape:pageshadow="2"
     inkscape:window-width="1366"
     inkscape:window-height="699"
     id="namedview4"
     showgrid="false"
     inkscape:zoom="1.875873"
     inkscape:cx="-3.1985108"
     inkscape:cy="114.87985"
     inkscape:window-x="0"
     inkscape:window-y="40"
     inkscape:window-maximized="1"
     inkscape:current-layer="svg2"
     fit-margin-top="0"
     fit-margin-left="0"
     fit-margin-right="0"
     fit-margin-bottom="-0.6"
     inkscape:pagecheckerboard="0" />
  <g
     id="g16606"
     inkscape:export-filename="/home/israel/programming/rs/creature_fighter/assets/butterfly/left_attack.png"
     inkscape:export-xdpi="90"
     inkscape:export-ydpi="90"
     transform="matrix(-1,0,0,1,197.55204,0)">
    <g
       id="g15170">
      <path
         style="fill:#ff7fed;fill-opacity:1;stroke:#000000;stroke-width:4;stroke-linecap:butt;stroke-linejoin:miter;stroke-miterlimit:4;stroke-dasharray:none;stroke-opacity:1"
         d="m 129.96314,193.6038 c 0,0 21.20858,5.34763 31.70869,3.63539 6.79148,-1.10748 13.67438,-4.04439 18.6997,-8.74511 4.60582,-4.30832 8.67173,-10.27681 9.13995,-16.56616 0.41413,-5.56278 -2.0795,-11.5545 -5.82534,-15.68787 -4.23995,-4.67861 -10.82836,-7.09036 -17.02453,-8.30449 -8.09827,-1.58684 -24.70153,1.6536 -24.70153,1.6536 z"
         id="path13570"
         sodipodi:nodetypes="cssssscc" />
      <path
         style="fill:#ff7fed;fill-opacity:1;stroke:#000000;stroke-width:4;stroke-linecap:butt;stroke-linejoin:miter;stroke-miterlimit:4;stroke-dasharray:none;stroke-opacity:1"
         d="m 71.027011,92.671491 c 0,0 -21.208578,-5.34763 -31.708691,-3.635391 -6.791475,1.107477 -13.67438,4.044388 -18.699699,8.745112 -4.605815,4.308318 -8.671726,10.276808 -9.139946,16.566158 -0.41413,5.56278 2.0795,11.5545 5.825332,15.68787 4.239954,4.67861 10.828366,7.09036 17.024533,8.30449 8.098268,1.58684 24.701531,-1.6536 24.701531,-1.6536 z"
         id="path11492"
         sodipodi:nodetypes="cssssscc" />
      <path
         style="fill:#ff7fed;fill-opacity:1;stroke:#000000;stroke-width:4;stroke-linecap:butt;stroke-linejoin:miter;stroke-miterlimit:4;stroke-dasharray:none;stroke-opacity:1"
         d="m 61.720973,156.59717 c 0,0 -20.710698,-0.43086 -31.210811,1.28138 -6.791475,1.10747 -13.67438,4.04438 -18.699699,8.74511 -4.6058149,4.30832 -8.6717259,10.27681 -9.1399459,16.56616 -0.41413,5.56278 2.0795,11.5545 5.825332,15.68787 4.2399539,4.67861 10.8283659,7.09036 17.0245329,8.30449 8.098268,1.58684 52.618932,-7.88672 52.618932,-7.88672 z"
         id="path13572"
         sodipodi:nodetypes="cssssscc" />
      <path
         style="fill:#ff7fed;fill-opacity:1;stroke:#000000;stroke-width:4;stroke-linecap:butt;stroke-linejoin:miter;stroke-miterlimit:4;stroke-dasharray:none;stroke-opacity:1"
         d="m 123.76853,81.369613 c 0,0 10.37186,-8.058058 20.54277,-11.178419 9.93213,-3.047106 36.91909,2.560691 41.94441,7.261421 4.60582,4.30832 8.1612,4.544638 8.62942,10.833988 0.41413,5.562786 -2.56675,13.099387 -6.31259,17.232757 -4.23995,4.67861 -8.22253,10.56977 -17.09541,16.38748 -10.60401,6.95276 -26.50215,10.15629 -26.50215,10.15629 z"
         id="path14072"
         sodipodi:nodetypes="cssssscc" />
      <ellipse
         style="fill:#ffe97f;fill-opacity:1;stroke:#000000;stroke-width:4;stroke-linecap:round;stroke-linejoin:round;stroke-miterlimit:4;stroke-dasharray:none;paint-order:fill markers stroke"
         id="ellipse2643"
         cx="102.58764"
         cy="140.22273"
         rx="42.78994"
         ry="73.29837" />
    </g>
    <path
       style="fill:#8c06c6;fill-opacity:1;stroke:#000000;stroke-width:4;stroke-linecap:round;stroke-linejoin:round;stroke-miterlimit:4;stroke-dasharray:none;stroke-opacity:1"
       d="m 79.83463,134.76488 c 0,0 15.945353,15.171 23.6248,13.46733 7.67946,-1.70367 20.50963,-21.34118 21.76097,-20.9871 0,0 -9.8781,1.96856 -14.86707,2.63013 -6.05403,0.80281 -12.234951,0.56056 -18.249257,1.62071 -4.168221,0.73474 -12.269443,3.26893 -12.269443,3.26893 z"
       id="path9239"
       sodipodi:nodetypes="cscssc" />
    <ellipse
       style="fill:#ff0000;fill-opacity:1;stroke:#000000;stroke-width:4.39241;stroke-linecap:round;stroke-linejoin:round;stroke-miterlimit:4;stroke-dasharray:none;paint-order:fill markers stroke"
       id="path1016"
       cx="78.447456"
       cy="20.968271"
       rx="14.492362"
       ry="17.632782" />
    <ellipse
       style="fill:#ff0000;fill-opacity:1;stroke:#000000;stroke-width:4.08352;stroke-linecap:round;stroke-linejoin:round;stroke-miterlimit:4;stroke-dasharray:none;paint-order:fill markers stroke"
       id="ellipse2641"
       cx="115.90137"
       cy="15.409423"
       rx="16.485104"
       ry="13.397771" />
    <ellipse
       style="fill:#ff7fed;fill-opacity:1;stroke:none;stroke-width:4;stroke-linecap:round;stroke-linejoin:round;stroke-miterlimit:4;stroke-dasharray:none;paint-order:fill markers stroke"
       id="ellipse6949"
       cx="126.48668"
       cy="125.70708"
       rx="5.5424495"
       ry="5.3202829" />
    <ellipse
       style="fill:#ff7fed;fill-opacity:1;stroke:none;stroke-width:4;stroke-linecap:round;stroke-linejoin:round;stroke-miterlimit:4;stroke-dasharray:none;paint-order:fill markers stroke"
       id="ellipse9196"
       cx="78.581779"
       cy="129.61328"
       rx="5.5424495"
       ry="5.3202829" />
    <g
       id="g15662"
       transform="rotate(180,98.77602,103.9398)">
      <ellipse
         style="fill:#8c06c6;fill-opacity:1;stroke:#000000;stroke-width:4;stroke-linecap:round;stroke-linejoin:round;stroke-miterlimit:4;stroke-dasharray:none;paint-order:fill markers stroke"
         id="ellipse3782"
         cx="-107.21851"
         cy="99.421211"
         rx="5.5424495"
         ry="5.3202829"
         transform="scale(-1,1)" />
      <path
         style="fill:none;stroke:#000000;stroke-width:4;stroke-linecap:round;stroke-linejoin:round;stroke-miterlimit:4;stroke-dasharray:none;stroke-opacity:1"
         d="m 112.96278,99.000132 c 0,0 4.14782,6.388068 2.31659,8.810388 -3.25583,4.30677 -16.193926,0.30841 -16.193926,0.30841"
         id="path11318"
         sodipodi:nodetypes="cac" />
    </g>
    <g
       id="g15666"
       transform="rotate(180,98.77602,102.28596)">
      <ellipse
         style="fill:#8c06c6;fill-opacity:1;stroke:#000000;stroke-width:4;stroke-linecap:round;stroke-linejoin:round;stroke-miterlimit:4;stroke-dasharray:none;paint-order:fill markers stroke"
         id="ellipse6947"
         cx="-84.860001"
         cy="96.339363"
         rx="5.5424495"
         ry="5.3202829"
         transform="scale(-1,1)" />
      <path
         style="fill:none;stroke:#000000;stroke-width:4;stroke-linecap:round;stroke-linejoin:round;stroke-miterlimit:4;stroke-dasharray:none;stroke-opacity:1"
         d="m 79.36928,98.774299 c 0,0 -4.413296,6.613831 -2.31659,8.810391 3.212142,3.36512 13.647878,-2.91763 13.647878,-2.91763"
         id="path11457"
         sodipodi:nodetypes="cac" />
    </g>
    <path
       style="fill:none;stroke:#000000;stroke-width:5;stroke-linecap:butt;stroke-linejoin:miter;stroke-miterlimit:4;stroke-dasharray:none;stroke-opacity:1"
       d="M 85.02184,74.377275 79.25242,38.530109"
       id="path15302" />
    <path
       style="fill:none;stroke:#000000;stroke-width:5;stroke-linecap:butt;stroke-linejoin:miter;stroke-miterlimit:4;stroke-dasharray:none;stroke-opacity:1"
       d="m 113.11983,69.228351 2.27906,-41.133317"
       id="path15304"
       sodipodi:nodetypes="cc" />
  </g>
  <g
     id="g15727"
     transform="translate(-615.70164,168.45969)">
    <g
       id="g15699"
       transform="matrix(-1,0,0,1,197.55204,0)">
      <path
         style="fill:#ff7fed;fill-opacity:1;stroke:#000000;stroke-width:4;stroke-linecap:butt;stroke-linejoin:miter;stroke-miterlimit:4;stroke-dasharray:none;stroke-opacity:1"
         d="m 129.96314,193.6038 c 0,0 21.20858,5.34763 31.70869,3.63539 6.79148,-1.10748 13.67438,-4.04439 18.6997,-8.74511 4.60582,-4.30832 8.67173,-10.27681 9.13995,-16.56616 0.41413,-5.56278 -2.0795,-11.5545 -5.82534,-15.68787 -4.23995,-4.67861 -10.82836,-7.09036 -17.02453,-8.30449 -8.09827,-1.58684 -24.70153,1.6536 -24.70153,1.6536 z"
         id="path15689"
         sodipodi:nodetypes="cssssscc" />
      <path
         style="fill:#ff7fed;fill-opacity:1;stroke:#000000;stroke-width:4;stroke-linecap:butt;stroke-linejoin:miter;stroke-miterlimit:4;stroke-dasharray:none;stroke-opacity:1"
         d="m 71.027011,92.671491 c 0,0 -21.208578,-5.34763 -31.708691,-3.635391 -6.791475,1.107477 -13.67438,4.044388 -18.699699,8.745112 -4.605815,4.308318 -8.671726,10.276808 -9.139946,16.566158 -0.41413,5.56278 2.0795,11.5545 5.825332,15.68787 4.239954,4.67861 10.828366,7.09036 17.024533,8.30449 8.098268,1.58684 24.701531,-1.6536 24.701531,-1.6536 z"
         id="path15691"
         sodipodi:nodetypes="cssssscc" />
      <path
         style="fill:#ff7fed;fill-opacity:1;stroke:#000000;stroke-width:4;stroke-linecap:butt;stroke-linejoin:miter;stroke-miterlimit:4;stroke-dasharray:none;stroke-opacity:1"
         d="m 61.720973,156.59717 c 0,0 -20.710698,-0.43086 -31.210811,1.28138 -6.791475,1.10747 -13.67438,4.04438 -18.699699,8.74511 -4.6058149,4.30832 -8.6717259,10.27681 -9.1399459,16.56616 -0.41413,5.56278 2.0795,11.5545 5.825332,15.68787 4.2399539,4.67861 10.8283659,7.09036 17.0245329,8.30449 8.098268,1.58684 52.618932,-7.88672 52.618932,-7.88672 z"
         id="path15693"
         sodipodi:nodetypes="cssssscc" />
      <path
         style="fill:#ff7fed;fill-opacity:1;stroke:#000000;stroke-width:4;stroke-linecap:butt;stroke-linejoin:miter;stroke-miterlimit:4;stroke-dasharray:none;stroke-opacity:1"
         d="m 123.76853,81.369613 c 0,0 10.37186,-8.058058 20.54277,-11.178419 9.93213,-3.047106 36.91909,2.560691 41.94441,7.261421 4.60582,4.30832 8.1612,4.544638 8.62942,10.833988 0.41413,5.562786 -2.56675,13.099387 -6.31259,17.232757 -4.23995,4.67861 -8.22253,10.56977 -17.09541,16.38748 -10.60401,6.95276 -26.50215,10.15629 -26.50215,10.15629 z"
         id="path15695"
         sodipodi:nodetypes="cssssscc" />
      <ellipse
         style="fill:#ffe97f;fill-opacity:1;stroke:#000000;stroke-width:4;stroke-linecap:round;stroke-linejoin:round;stroke-miterlimit:4;stroke-dasharray:none;paint-order:fill markers stroke"
         id="ellipse15697"
         cx="102.58764"
         cy="140.22273"
         rx="42.78994"
         ry="73.29837" />
    </g>
    <path
       style="fill:#8c06c6;fill-opacity:1;stroke:#000000;stroke-width:4;stroke-linecap:round;stroke-linejoin:round;stroke-miterlimit:4;stroke-dasharray:none;stroke-opacity:1"
       d="m 117.71741,134.76488 -20.87719,23.83371 -24.50858,-31.35348 10.65871,12.76722 27.78554,2.02503 z"
       id="path15701" />
    <ellipse
       style="fill:#ff0000;fill-opacity:1;stroke:#000000;stroke-width:4.39241;stroke-linecap:round;stroke-linejoin:round;stroke-miterlimit:4;stroke-dasharray:none;paint-order:fill markers stroke"
       id="ellipse15703"
       cx="-119.10458"
       cy="20.968271"
       rx="14.492362"
       ry="17.632782"
       transform="scale(-1,1)" />
    <ellipse
       style="fill:#ff0000;fill-opacity:1;stroke:#000000;stroke-width:4.08352;stroke-linecap:round;stroke-linejoin:round;stroke-miterlimit:4;stroke-dasharray:none;paint-order:fill markers stroke"
       id="ellipse15705"
       cx="-81.650673"
       cy="15.409423"
       rx="16.485104"
       ry="13.397771"
       transform="scale(-1,1)" />
    <ellipse
       style="fill:#ff7fed;fill-opacity:1;stroke:none;stroke-width:4;stroke-linecap:round;stroke-linejoin:round;stroke-miterlimit:4;stroke-dasharray:none;paint-order:fill markers stroke"
       id="ellipse15707"
       cx="-71.065361"
       cy="125.70708"
       rx="5.5424495"
       ry="5.3202829"
       transform="scale(-1,1)" />
    <ellipse
       style="fill:#ff7fed;fill-opacity:1;stroke:none;stroke-width:4;stroke-linecap:round;stroke-linejoin:round;stroke-miterlimit:4;stroke-dasharray:none;paint-order:fill markers stroke"
       id="ellipse15709"
       cx="-118.97026"
       cy="129.61328"
       rx="5.5424495"
       ry="5.3202829"
       transform="scale(-1,1)" />
    <g
       id="g15715">
      <ellipse
         style="fill:#8c06c6;fill-opacity:1;stroke:#000000;stroke-width:4;stroke-linecap:round;stroke-linejoin:round;stroke-miterlimit:4;stroke-dasharray:none;paint-order:fill markers stroke"
         id="ellipse15711"
         cx="-107.21851"
         cy="99.421211"
         rx="5.5424495"
         ry="5.3202829"
         transform="scale(-1,1)" />
      <path
         style="fill:none;stroke:#000000;stroke-width:4;stroke-linecap:round;stroke-linejoin:round;stroke-miterlimit:4;stroke-dasharray:none;stroke-opacity:1"
         d="m 112.96278,99.000132 c 0,0 3.37761,5.965168 2.31659,8.810388 -1.23144,3.30218 -8.72748,5.96814 -8.72748,5.96814"
         id="path15713"
         sodipodi:nodetypes="cac" />
    </g>
    <g
       id="g15721">
      <ellipse
         style="fill:#8c06c6;fill-opacity:1;stroke:#000000;stroke-width:4;stroke-linecap:round;stroke-linejoin:round;stroke-miterlimit:4;stroke-dasharray:none;paint-order:fill markers stroke"
         id="ellipse15717"
         cx="-84.860001"
         cy="96.339363"
         rx="5.5424495"
         ry="5.3202829"
         transform="scale(-1,1)" />
      <path
         style="fill:none;stroke:#000000;stroke-width:4;stroke-linecap:round;stroke-linejoin:round;stroke-miterlimit:4;stroke-dasharray:none;stroke-opacity:1"
         d="m 79.36928,98.774299 c 0,0 -3.37762,5.965171 -2.31659,8.810391 1.23144,3.30218 8.72748,5.96814 8.72748,5.96814"
         id="path15719"
         sodipodi:nodetypes="cac" />
    </g>
    <path
       style="fill:none;stroke:#000000;stroke-width:5;stroke-linecap:butt;stroke-linejoin:miter;stroke-miterlimit:4;stroke-dasharray:none;stroke-opacity:1"
       d="m 112.5302,74.377275 5.76942,-35.847166"
       id="path15723" />
    <path
       style="fill:none;stroke:#000000;stroke-width:5;stroke-linecap:butt;stroke-linejoin:miter;stroke-miterlimit:4;stroke-dasharray:none;stroke-opacity:1"
       d="M 84.43221,69.228351 82.15315,28.095034"
       id="path15725"
       sodipodi:nodetypes="cc" />
  </g>
  <g
     id="g15897"
     inkscape:export-filename="/home/israel/programming/rs/creature_fighter/assets/butterfly/right_hurt.png"
     inkscape:export-xdpi="90"
     inkscape:export-ydpi="90"
     transform="matrix(-1,0,0,1,353.62474,420.19555)">
    <g
       id="g15869"
       transform="matrix(-1,0,0,1,197.55204,0)">
      <path
         style="fill:#ff7fed;fill-opacity:1;stroke:#000000;stroke-width:4;stroke-linecap:butt;stroke-linejoin:miter;stroke-miterlimit:4;stroke-dasharray:none;stroke-opacity:1"
         d="m 129.96314,193.6038 c 0,0 21.20858,5.34763 31.70869,3.63539 6.79148,-1.10748 13.67438,-4.04439 18.6997,-8.74511 4.60582,-4.30832 8.67173,-10.27681 9.13995,-16.56616 0.41413,-5.56278 -2.0795,-11.5545 -5.82534,-15.68787 -4.23995,-4.67861 -10.82836,-7.09036 -17.02453,-8.30449 -8.09827,-1.58684 -24.70153,1.6536 -24.70153,1.6536 z"
         id="path15859"
         sodipodi:nodetypes="cssssscc" />
      <path
         style="fill:#ff7fed;fill-opacity:1;stroke:#000000;stroke-width:4;stroke-linecap:butt;stroke-linejoin:miter;stroke-miterlimit:4;stroke-dasharray:none;stroke-opacity:1"
         d="m 71.027011,92.671491 c 0,0 -21.208578,-5.34763 -31.708691,-3.635391 -6.791475,1.107477 -13.67438,4.044388 -18.699699,8.745112 -4.605815,4.308318 -8.671726,10.276808 -9.139946,16.566158 -0.41413,5.56278 2.0795,11.5545 5.825332,15.68787 4.239954,4.67861 10.828366,7.09036 17.024533,8.30449 8.098268,1.58684 24.701531,-1.6536 24.701531,-1.6536 z"
         id="path15861"
         sodipodi:nodetypes="cssssscc" />
      <path
         style="fill:#ff7fed;fill-opacity:1;stroke:#000000;stroke-width:4;stroke-linecap:butt;stroke-linejoin:miter;stroke-miterlimit:4;stroke-dasharray:none;stroke-opacity:1"
         d="m 61.720973,156.59717 c 0,0 -20.710698,-0.43086 -31.210811,1.28138 -6.791475,1.10747 -13.67438,4.04438 -18.699699,8.74511 -4.6058149,4.30832 -8.6717259,10.27681 -9.1399459,16.56616 -0.41413,5.56278 2.0795,11.5545 5.825332,15.68787 4.2399539,4.67861 10.8283659,7.09036 17.0245329,8.30449 8.098268,1.58684 52.618932,-7.88672 52.618932,-7.88672 z"
         id="path15863"
         sodipodi:nodetypes="cssssscc" />
      <path
         style="fill:#ff7fed;fill-opacity:1;stroke:#000000;stroke-width:4;stroke-linecap:butt;stroke-linejoin:miter;stroke-miterlimit:4;stroke-dasharray:none;stroke-opacity:1"
         d="m 123.76853,81.369613 c 0,0 10.37186,-8.058058 20.54277,-11.178419 9.93213,-3.047106 36.91909,2.560691 41.94441,7.261421 4.60582,4.30832 8.1612,4.544638 8.62942,10.833988 0.41413,5.562786 -2.56675,13.099387 -6.31259,17.232757 -4.23995,4.67861 -8.22253,10.56977 -17.09541,16.38748 -10.60401,6.95276 -26.50215,10.15629 -26.50215,10.15629 z"
         id="path15865"
         sodipodi:nodetypes="cssssscc" />
      <ellipse
         style="fill:#ffe97f;fill-opacity:1;stroke:#000000;stroke-width:4;stroke-linecap:round;stroke-linejoin:round;stroke-miterlimit:4;stroke-dasharray:none;paint-order:fill markers stroke"
         id="ellipse15867"
         cx="102.58764"
         cy="140.22273"
         rx="42.78994"
         ry="73.29837" />
    </g>
    <path
       style="fill:#8c06c6;fill-opacity:1;stroke:#000000;stroke-width:4;stroke-linecap:round;stroke-linejoin:round;stroke-miterlimit:4;stroke-dasharray:none;stroke-opacity:1"
       d="M 117.71741,151.08681 96.84022,127.2531 72.33164,158.60658 82.99035,145.83936 110.77589,143.81433 Z"
       id="path15871" />
    <ellipse
       style="fill:#ff0000;fill-opacity:1;stroke:#000000;stroke-width:4.39241;stroke-linecap:round;stroke-linejoin:round;stroke-miterlimit:4;stroke-dasharray:none;paint-order:fill markers stroke"
       id="ellipse15873"
       cx="-119.10458"
       cy="20.968271"
       rx="14.492362"
       ry="17.632782"
       transform="scale(-1,1)" />
    <ellipse
       style="fill:#ff0000;fill-opacity:1;stroke:#000000;stroke-width:4.08352;stroke-linecap:round;stroke-linejoin:round;stroke-miterlimit:4;stroke-dasharray:none;paint-order:fill markers stroke"
       id="ellipse15875"
       cx="-81.650673"
       cy="15.409423"
       rx="16.485104"
       ry="13.397771"
       transform="scale(-1,1)" />
    <ellipse
       style="fill:#ff7fed;fill-opacity:1;stroke:none;stroke-width:4;stroke-linecap:round;stroke-linejoin:round;stroke-miterlimit:4;stroke-dasharray:none;paint-order:fill markers stroke"
       id="ellipse15877"
       cx="-71.065361"
       cy="125.70708"
       rx="5.5424495"
       ry="5.3202829"
       transform="scale(-1,1)" />
    <ellipse
       style="fill:#ff7fed;fill-opacity:1;stroke:none;stroke-width:4;stroke-linecap:round;stroke-linejoin:round;stroke-miterlimit:4;stroke-dasharray:none;paint-order:fill markers stroke"
       id="ellipse15879"
       cx="-118.97026"
       cy="129.61328"
       rx="5.5424495"
       ry="5.3202829"
       transform="scale(-1,1)" />
    <g
       id="g15885"
       transform="matrix(1,0,0,-1,0,207.87959)">
      <ellipse
         style="fill:#8c06c6;fill-opacity:1;stroke:#000000;stroke-width:4;stroke-linecap:round;stroke-linejoin:round;stroke-miterlimit:4;stroke-dasharray:none;paint-order:fill markers stroke"
         id="ellipse15881"
         cx="-107.21851"
         cy="99.421211"
         rx="5.5424495"
         ry="5.3202829"
         transform="scale(-1,1)" />
      <path
         style="fill:none;stroke:#000000;stroke-width:4;stroke-linecap:round;stroke-linejoin:round;stroke-miterlimit:4;stroke-dasharray:none;stroke-opacity:1"
         d="m 112.96278,99.000132 c 0,0 3.37761,5.965168 2.31659,8.810388 -1.23144,3.30218 -8.72748,5.96814 -8.72748,5.96814"
         id="path15883"
         sodipodi:nodetypes="cac" />
    </g>
    <g
       id="g15891"
       transform="matrix(1,0,0,-1,0,204.57191)">
      <ellipse
         style="fill:#8c06c6;fill-opacity:1;stroke:#000000;stroke-width:4;stroke-linecap:round;stroke-linejoin:round;stroke-miterlimit:4;stroke-dasharray:none;paint-order:fill markers stroke"
         id="ellipse15887"
         cx="-84.860001"
         cy="96.339363"
         rx="5.5424495"
         ry="5.3202829"
         transform="scale(-1,1)" />
      <path
         style="fill:none;stroke:#000000;stroke-width:4;stroke-linecap:round;stroke-linejoin:round;stroke-miterlimit:4;stroke-dasharray:none;stroke-opacity:1"
         d="m 79.36928,98.774299 c 0,0 -3.37762,5.965171 -2.31659,8.810391 1.23144,3.30218 8.72748,5.96814 8.72748,5.96814"
         id="path15889"
         sodipodi:nodetypes="cac" />
    </g>
    <path
       style="fill:none;stroke:#000000;stroke-width:5;stroke-linecap:butt;stroke-linejoin:miter;stroke-miterlimit:4;stroke-dasharray:none;stroke-opacity:1"
       d="m 112.5302,74.377275 5.76942,-35.847166"
       id="path15893" />
    <path
       style="fill:none;stroke:#000000;stroke-width:5;stroke-linecap:butt;stroke-linejoin:miter;stroke-miterlimit:4;stroke-dasharray:none;stroke-opacity:1"
       d="M 84.43221,69.228351 82.15315,28.095034"
       id="path15895"
       sodipodi:nodetypes="cc" />
  </g>
</svg>
